<svg width="27" height="34" viewBox="0 0 27 34" fill="none" xmlns="http://www.w3.org/2000/svg">
<path d="M23.439 4.416C22.578 3.4979 21.378 2.3334 19.731 1.471C18.137 0.636401 16.545 0.209601 14.405 0.0423012C14.046 0.0142012 13.684 0 13.33 0C8.902 0 5.82801 2.1446 4.02901 3.9437C2.01701 5.9549 -0.308002 9.3549 0.0339975 14.1315C0.286998 17.6591 2.308 20.432 3.931 22.6601L4 22.7555C4.29 23.1527 4.591 23.5417 4.91 23.9545C5.914 25.2508 6.95201 26.5912 7.69701 28.2939L7.78301 28.4888C8.08801 29.1799 8.46601 30.0399 8.42101 30.4825C8.38801 30.7989 8.251 30.9535 8.093 31.1325C7.874 31.3811 7.601 31.6905 7.776 32.3533C8.004 33.2135 9.088 33.2135 10.343 33.2135H16.885C17.92 33.2135 18.991 33.2135 19.219 32.353C19.391 31.7055 19.092 31.3425 18.852 31.051C18.716 30.8861 18.599 30.7437 18.573 30.565C18.451 29.7008 19.384 27.7384 20.303 26.2808C20.884 25.3608 21.506 24.5618 22.109 23.7893C22.387 23.4322 22.651 23.0948 22.9 22.7574C23.032 22.5787 23.165 22.4001 23.299 22.2219C24.969 19.9829 26.696 17.6681 26.961 14.2264C27.336 9.3585 24.915 5.9904 23.439 4.416ZM20.948 21.0183C20.828 21.1762 20.709 21.3337 20.59 21.491C20.382 21.7668 20.174 22.0406 19.965 22.3123C18.09 24.7624 16.318 27.0798 15.903 30.6043H11.088C10.571 26.8779 8.765 24.5013 6.854 21.9885C6.706 21.7929 6.55601 21.5959 6.40601 21.3976L6.151 21.0605C4.663 19.0972 2.97599 16.8721 2.73399 14.272C2.35099 10.1653 4.252 7.3649 5.913 5.7389C8.035 3.661 10.597 2.6074 13.525 2.6074C13.86 2.6074 14.203 2.6216 14.546 2.6497C19.714 3.072 23.89 7.287 24.261 12.4543C24.535 16.2897 22.711 18.6935 20.947 21.0183H20.948Z" fill="#231F20"/>
</svg>
