<svg width="33" height="32" viewBox="0 0 33 32" fill="none" xmlns="http://www.w3.org/2000/svg">
<path d="M25.5606 4.3307C25.5644 4.277 25.5644 4.2232 25.5606 4.1695C25.5374 3.0564 25.0693 1.9965 24.2566 1.2171C23.4439 0.437699 22.3512 0.000700843 21.213 8.42552e-07C20.0748 -0.000699157 18.9815 0.4348 18.1678 1.2132C17.354 1.9916 16.8844 3.0508 16.8598 4.1639C17.1946 6.2662 18.0738 6.9287 18.7575 8.4842L9.2421 8.3011L9.0568 17.5304C7.2536 16.843 5.9585 15.6074 4.4288 15.5787C4.3735 15.5752 4.318 15.5752 4.2627 15.5787C3.125 15.601 2.0416 16.0585 1.2447 16.853C0.447801 17.6475 0.00100168 18.7158 1.68213e-06 19.8288C-0.000998318 20.9417 0.443901 22.0108 1.2393 22.8066C2.0348 23.6025 3.1174 24.0619 4.255 24.0862C6.5316 23.74 7.1565 22.7938 8.9622 22.1145L8.7705 31.5432L18.3275 31.7269C17.6425 30.1083 16.7333 29.4608 16.3927 27.3197C16.4173 26.2068 16.8867 25.1477 17.7003 24.3694C18.5139 23.591 19.6069 23.1555 20.745 23.1562C21.883 23.1568 22.9755 23.5936 23.7882 24.3729C24.6009 25.1521 25.069 26.2118 25.0922 27.3247C25.0954 27.3786 25.0954 27.4327 25.0922 27.4866C25.0634 28.924 23.8941 30.1551 23.1753 31.82L32.5329 32L33 8.7517L23.6769 8.5729C24.4028 6.9555 25.5324 5.7456 25.5606 4.3307Z" fill="black"/>
</svg>
